<svg width="24" height="25" viewBox="0 0 24 25" fill="none" xmlns="http://www.w3.org/2000/svg">
<path d="M2.64738 16.4967C1.93228 16.4702 1.34722 16.2872 0.88975 15.9473C0.802444 15.8823 0.594403 15.6876 0.524607 15.6055C0.339097 15.3873 0.212975 15.175 0.128853 14.9394C-0.130004 14.2143 0.00322034 13.2627 0.509914 12.2183C0.94375 11.3242 1.61318 10.4374 2.78109 9.20926C2.95313 9.02854 3.46546 8.5 3.46877 8.5C3.46999 8.5 3.44207 8.54524 3.40693 8.60033C3.10326 9.07606 2.84342 9.63644 2.70187 10.1216C2.47448 10.9 2.50191 11.568 2.78219 12.086C2.97554 12.4429 3.30701 12.752 3.67974 12.9229C4.33227 13.2219 5.28762 13.2466 6.45431 12.9952C6.53464 12.9778 10.515 11.9896 15.2995 10.7991C20.0841 9.60849 23.9994 8.63514 24 8.63594C24.0013 8.63697 12.8841 13.0863 7.11297 15.3946C6.19901 15.76 5.9546 15.8523 5.52493 15.9934C4.42656 16.3542 3.44268 16.5263 2.64738 16.4967Z" fill="#101010"/>
</svg>
