<svg width="24" height="20" viewBox="0 0 24 20" fill="none" xmlns="http://www.w3.org/2000/svg">
<path d="M2.26936 0.579191C2.11516 0.602839 1.96691 1.16738 1.66889 1.46147C1.45095 1.67372 1.17889 1.66044 1.03438 1.92285C0.979517 2.02088 0.997289 2.18822 0.935035 2.34889C0.813452 2.67023 0.385015 2.69895 0.385015 3.04907C0.383525 3.42718 0.742314 3.49939 1.05289 3.76767C1.29531 3.98362 1.31905 4.13249 1.61255 4.23714C1.86316 4.32194 2.23599 4.04478 2.5718 4.14429C2.84758 4.22613 3.11144 4.28507 3.17375 4.56663C3.22855 4.82607 3.17002 5.22846 2.83571 5.18206C2.72301 5.16952 2.2345 5.00589 1.63409 5.06927C0.909813 5.15111 0.0832658 5.38616 0.00249471 6.18888C-0.0419879 6.63771 0.516174 7.16691 1.05513 7.05931C1.42796 6.9863 1.25157 6.54931 1.45467 6.33701C1.72077 6.06508 3.22855 7.28632 4.63034 7.28632C5.22043 7.28632 5.65924 7.13819 6.09518 6.68416C6.13588 6.64951 6.18558 6.57508 6.24858 6.57063C6.30791 6.57508 6.41167 6.63327 6.44577 6.65835C7.57476 7.56047 8.42797 9.36995 12.577 9.39132C13.1604 9.39423 13.8253 9.6714 14.3679 10.1637C14.852 10.6089 15.1352 11.3009 15.4101 12.0034C15.8253 13.0574 16.5696 14.0826 17.6977 15.2235C17.7593 15.2847 18.6881 16.0026 18.7622 16.0564C18.7741 16.0637 18.8423 16.2259 18.8186 16.3165C18.7912 17.0005 18.6911 18.9898 20.1826 19.0797C20.5473 19.0981 20.4516 18.8431 20.4516 18.6677C20.4509 18.3213 20.3871 17.9771 20.571 17.6226C20.8223 17.1347 20.038 16.9098 20.061 15.8551C20.0773 15.0687 19.4131 15.2028 19.0758 14.6036C18.8816 14.2565 18.7089 14.0723 18.7215 13.6477C18.7971 11.2583 18.21 9.68832 17.9172 9.30287C17.6889 9.01173 17.4999 8.89603 17.7089 8.76113C18.9535 7.94376 19.236 7.1831 19.236 7.1831C19.8979 5.63608 20.4932 4.22312 21.3138 3.60113C21.4791 3.47283 21.9031 3.15816 22.1633 3.03431C22.929 2.67536 23.3323 2.45797 23.5547 2.24271C23.9068 1.90148 24.1848 1.19023 23.8475 0.759064C23.4279 0.226902 22.7022 0.649236 22.382 0.837892C20.0936 2.18822 19.7563 4.57028 18.9639 5.93827C18.3316 7.03127 17.3034 7.83393 16.3842 7.89953C15.6948 7.95037 14.9521 7.81182 14.2122 7.489C12.4131 6.7048 11.4287 5.69211 11.1967 5.51303C10.7133 5.14227 6.96094 1.47988 3.92091 1.33027C3.92091 1.33027 3.54365 0.579244 3.44873 0.566705C3.22632 0.538666 2.99879 1.01554 2.83571 1.07088C2.68225 1.12167 2.4243 0.554114 2.26936 0.579191Z" fill="#101010"/>
</svg>
