<svg width="24" height="8" viewBox="0 0 24 8" fill="none" xmlns="http://www.w3.org/2000/svg">
<path fill-rule="evenodd" clip-rule="evenodd" d="M11.695 2.10303L14.3388 3.81288L18.559 2.15663C19.9833 1.67576 21.8137 1.14129 24 0.5C18.6104 0.981065 14.5425 1.46174 11.695 2.10303ZM9.66118 3.91989L7.32208 3.2786C6.00005 3.65285 4.72885 4.24034 3.55948 4.98864C2.38974 5.73635 1.47469 6.59167 0.864411 7.5H4.83068C5.13582 7.01893 5.64427 6.48446 6.30519 5.95018C7.27106 5.09546 8.38998 4.45416 9.66118 3.91989ZM12.4579 4.93484L10.4748 4.24014C10.017 4.45417 9.45788 4.72121 8.79658 5.20188C7.88135 5.84317 7.06776 6.64469 6.35601 7.5H10.0678C10.5762 6.64469 11.3898 5.78996 12.4579 4.93484ZM7.93236 0.5H0L7.93217 2.74432C11.4406 3.86609 14.6948 5.14886 17.6954 6.48446L7.93236 0.5Z" fill="#101010"/>
</svg>
